<?xml version="1.0" encoding="UTF-8" standalone="no"?>
<svg
   xmlns:dc="http://purl.org/dc/elements/1.1/"
   xmlns:cc="http://creativecommons.org/ns#"
   xmlns:rdf="http://www.w3.org/1999/02/22-rdf-syntax-ns#"
   xmlns:svg="http://www.w3.org/2000/svg"
   xmlns="http://www.w3.org/2000/svg"
   xmlns:sodipodi="http://sodipodi.sourceforge.net/DTD/sodipodi-0.dtd"
   xmlns:inkscape="http://www.inkscape.org/namespaces/inkscape"
   viewBox="0 0 70.077728 91.088005"
   x="0px"
   y="0px"
   id="svg2"
   version="1.1"
   inkscape:version="0.91 r13725"
   sodipodi:docname="abLineMitte.svg"
   width="70.077728"
   height="91.088005">
  <metadata
     id="metadata14">
    <rdf:RDF>
      <cc:Work
         rdf:about="">
        <dc:format>image/svg+xml</dc:format>
        <dc:type
           rdf:resource="http://purl.org/dc/dcmitype/StillImage" />
        <dc:title></dc:title>
      </cc:Work>
    </rdf:RDF>
  </metadata>
  <defs
     id="defs12" />
  <sodipodi:namedview
     pagecolor="#ffffff"
     bordercolor="#666666"
     borderopacity="1"
     objecttolerance="10"
     gridtolerance="10"
     guidetolerance="10"
     inkscape:pageopacity="0"
     inkscape:pageshadow="2"
     inkscape:window-width="1920"
     inkscape:window-height="1017"
     id="namedview10"
     showgrid="false"
     inkscape:zoom="5.6568543"
     inkscape:cx="44.45707"
     inkscape:cy="47.671502"
     inkscape:window-x="-8"
     inkscape:window-y="1076"
     inkscape:window-maximized="1"
     inkscape:current-layer="svg2"
     fit-margin-top="0"
     fit-margin-left="0"
     fit-margin-right="0"
     fit-margin-bottom="0" />
  <g
     id="g3359"
     transform="matrix(-1,0,0,1,64.664211,5.6127291)">
    <path
       id="path3347"
       d="m 30.621822,9.5317946 0,14.5857904 4,0 c 0.55228,0 1,0.44772 1,1 l 0,7 5,0 0,-5 c 0,-0.55228 0.44772,-1 1,-1 l 8,0 c 0.55228,0 1,0.44772 1,1 l 0,12 c 0,0.55228 -0.44772,1 -1,1 l -8,0 c -0.55228,0 -1,-0.44772 -1,-1 l 0,-5 -5,0 0,12.58579 5.70711,5.7071 c 0.18753,0.18754 0.29289,0.44189 0.29289,0.70711 l 0,8 5,0 0,-8 c 0,-0.55228 0.44772,-1 1,-1 l 8,0 c 0.55228,0 1,0.44772 1,1 l 0,18 c 0,0.55228 -0.44772,1 -1,1 l -8,0 c -0.55228,0 -1,-0.44772 -1,-1 l 0,-8 -5,0 0,8 c 0,0.55228 -0.44772,1 -1,1 l -22,0 c -0.55228,0 -1,-0.44772 -1,-1 l 0,-8 -5,0 0,8 c 0,0.55228 -0.44772,1 -1,1 l -8,0 c -0.55228,0 -1,-0.44772 -1,-1 l 0,-18 c 0,-0.55228 0.44772,-1 1,-1 l 8,0 c 0.55228,0 1,0.44772 1,1 l 0,8 5,0 0,-8 c 0,-0.26522 0.10536,-0.51957 0.29289,-0.70711 l 5.70711,-5.7071 0,-12.58579 -5,0 0,5 c 0,0.55228 -0.44772,1 -1,1 l -8,0 c -0.55228,0 -1,-0.44772 -1,-1 l 0,-12 c 0,-0.55228 0.44772,-1 1,-1 l 8,0 c 0.55228,0 1,0.44772 1,1 l 0,5 5,0 0,-7 c 0,-0.55228 0.44772,-1 1,-1 l 4,0 0,-14.5857904 -3.29289,3.2929004 c -0.39053,0.39052 -1.02369,0.39052 -1.41422,0 -0.39052,-0.39053 -0.39052,-1.02369 0,-1.41422 l 5,-5.0000002 c 0.39053,-0.39052 1.02369,-0.39052 1.41422,0 l 5,5.0000002 c 0.39052,0.39053 0.39052,1.02369 0,1.41422 -0.39053,0.39052 -1.02369,0.39052 -1.41422,0 z m -5,16.5857904 0,21 c 0,0.26522 -0.10536,0.51957 -0.29289,0.70711 l -5.70711,5.7071 0,16.58579 20,0 0,-16.58579 -5.70711,-5.7071 c -0.18753,-0.18754 -0.29289,-0.44189 -0.29289,-0.70711 l 0,-21 c 1.23854,0 -0.40754,0 -8,0 z m -15,2 0,10 6,0 0,-10 z m 32,0 0,10 6,0 0,-10 z m -38,26 0,16 6,0 0,-16 z m 44,0 0,16 6,0 0,-16 z"
       inkscape:connector-curvature="0"
       style="fill:#000000"
       sodipodi:nodetypes="ccssccssssssssccccsccssssssssccssssccssssssssccsccccssssssssccssccccssssccccsccccccscccccccccccccccccccccc" />
    <text
       id="text3349"
       font-weight="bold"
       font-size="5px"
       y="81"
       x="0"
       style="font-weight:bold;font-size:5px;font-family:'Helvetica Neue', Helvetica, Arial-Unicode, Arial, Sans-serif;fill:#000000" />
    <text
       id="text3351"
       font-weight="bold"
       font-size="5px"
       y="86"
       x="0"
       style="font-weight:bold;font-size:5px;font-family:'Helvetica Neue', Helvetica, Arial-Unicode, Arial, Sans-serif;fill:#000000" />
  </g>
  <path
     style="fill:none;fill-rule:evenodd;stroke:#000000;stroke-width:1px;stroke-linecap:butt;stroke-linejoin:miter;stroke-opacity:1"
     d="m 35.042389,-0.87044066 0,89.31673766"
     id="path3364"
     inkscape:connector-curvature="0" />
  <rect
     style="opacity:0;fill:#c83737"
     id="rect3366"
     width="70.09259"
     height="91.115685"
     x="-70.088684"
     y="-0.0057449341"
     transform="scale(-1,1)" />
  <rect
     style="opacity:0;fill:#c83737"
     id="rect3368"
     width="31.996582"
     height="30.405592"
     x="88.034798"
     y="15.42758" />
</svg>
